<?xml version='1.0' encoding='utf-8'?>
<svg xmlns="http://www.w3.org/2000/svg" width="168.475mm" height="209.191mm" version="1.1" style="shape-rendering:geometricPrecision; text-rendering:geometricPrecision; image-rendering:optimizeQuality; fill-rule:evenodd; clip-rule:evenodd" viewBox="0 0 4427 5496.89"> <defs> <style type="text/css">  .fil0 {fill:#191027} .fil2 {fill:#211F39} .fil8 {fill:#3C1434} .fil7 {fill:#661C37} .fil6 {fill:#841D3A} .fil4 {fill:#A52237} .fil9 {fill:#AEAD93} .fil3 {fill:#B62844} .fil10 {fill:#C93246} .fil1 {fill:#E3CB9A} .fil5 {fill:#F2873C}  </style> </defs> <g id="Layer_x0020_1"> <metadata id="CorelCorpID_0Corel-Layer"/> <path class="fil0" d="M-0 3242.52l0 2254.38c5763.79,0 -1993.03,0 4427,0l0 -449.4 -1310.25 -455.69 223.92 311.91c-6.01,-0.89 -401.91,-375.9 -446.22,-416.73 -151.88,-139.92 -314.9,-266.6 -474.19,-390.5 -166.71,-129.67 -313.13,-248.49 -495.27,-369.37 -88.1,-58.48 -170.47,-118.27 -260.12,-172.2 -85.38,-51.36 -205.85,-99.72 -281.03,-150.46l27.68 -72.89 -439.38 -291.9c-113.21,-49 -163.83,-39.64 -285.1,-50.96 -97.35,-9.09 -180.14,-64.13 -278.86,-9.09 -80.76,45.03 -99.14,128.61 -173.95,162.66 -18.36,8.36 -233.07,100.18 -234.24,100.24z"/> <path class="fil1" d="M1016.43 2997.72l108.33 -119.38 6.84 12.22 554.36 424.02 12.87 -0.73c-137.68,-98.08 -270.08,-211.52 -409.21,-312.08 -27.56,-19.92 -195.97,-144.17 -193.76,-166.77 3.16,-32.27 112.63,21.2 127.73,30.73 72.08,45.45 55.19,57.05 81.26,-17.78 60.37,-173.31 129.42,-374.14 168.96,-553.39 25.3,-114.69 129.88,-507.64 117.4,-601.04 -0.83,-0.95 -86.36,-35.36 -104.06,-47.96 -29.48,-20.97 -59.07,-41.39 -86.12,-65.52 -86.54,-77.2 -8.81,-207.55 -18.43,-242.27l-83.46 -60.43 6 -7.84c280.81,216.31 435.6,335.1 667.35,522.12l6.73 -8.09c-99.48,-84.63 -256.87,-208.4 -407.32,-323.75 -54.08,-41.47 -111.77,-93.24 -166.4,-131.57 -26.02,-18.26 0.16,-81.23 7.87,-110.43 24.4,-92.39 -2.59,-51.06 67.24,-79.39l341.02 289.96 15.54 -20.61c-37.38,-10.41 -264.96,-223.37 -334.19,-260.75 -27.96,-15.09 -57.05,-17.43 -64.4,-22.27l-16.46 -12.84 281.01 -332.78c8.99,-21.46 163.89,-106.92 195.32,-120.31 77.45,-32.99 153.97,-59.99 237.14,-78.16 99.22,-21.68 185.9,-28.76 287.03,-20.88 40.04,3.12 237.78,35.44 259.13,54.98 267.03,81.24 466.12,247.52 604.89,488.35 66.56,115.52 119.59,288.4 124.76,421.47 1.72,44.22 0.93,88.08 3.67,132.56 4.07,66.17 24.03,41.26 -24.45,94.7 -44.31,48.85 -91.24,91.79 -135.83,138.48 72.29,174.72 139.72,152.45 -53.49,254.84 -114.09,60.46 24.54,69.65 -33.15,138.48 -23.27,27.76 -40.26,19.13 -59.38,55 -8.74,16.38 -64.34,33.56 -68.28,46.51l-2.37 4 71.88 42.5c15.42,76.26 -88.13,120.56 -95.1,136.3 -25.06,56.6 92.85,92.07 -8.47,147.43 -49.99,34.68 -37.37,38.24 -104.48,12.23 -35.01,-13.56 -69.45,-31.39 -104.21,-46.13 -38.24,-16.22 -173.59,-76.92 -199.89,-99.12l-85.39 102.1 33.08 69.02 -18.16 52.41 -20.91 47.61 30.52 20.2 -2.37 -14.65 -118.13 25.32 -28.09 169.39 444.66 377.82c12.94,-2.55 162.07,-94.89 186.93,-109.6 47.07,-27.84 39.09,-17.47 84.99,22.02 26.69,22.97 53.29,46.04 79.98,69 105.89,91.07 211.36,187.63 317.82,276.79 217.06,181.79 440.64,351.43 657.71,530.86l3.87 -4.17 -1034.91 -959.47 51.36 -41.35c8.91,-11.34 103.5,-78.54 129.48,-99.56 60.25,-48.74 113.46,-105.99 166.82,-160.38 93.48,-95.29 206.51,-262.97 269.6,-384.88 168.1,-324.84 247.18,-717.85 201.13,-1081.83 -43.5,-343.84 -166.68,-661.03 -373.44,-934.36 -213.13,-281.74 -436.32,-409.72 -752.09,-554.61l-1229.1 0c-1,1.27 -184.4,79.89 -207.02,91.81 -64.21,33.86 -127.07,70.18 -187.38,110.63 -118.21,79.3 -222.44,170.25 -320.9,275.08 -204.41,217.64 -342.71,489.67 -413.19,778.64 -83.38,341.87 -50.56,703.93 71.78,1030.23 78.28,208.79 184.17,392.12 336.37,557.38 36.8,39.96 117.32,114.7 143.54,153.95z"/> <path class="fil2" d="M2388.4 3053.71c-7.82,2.22 -70.64,289.58 -78.18,322.04 -12.39,53.33 -27.48,111 -38.91,163.45 -11.3,51.87 40.17,75.17 78.28,105.12 146.66,115.29 289.84,243.4 432.53,364.44 117.47,99.64 825.91,664.27 853.98,738.12l7.65 -9.18 -1382.29 -1152.18 -6.44 6.91c-3.2,4.91 -25.76,58.11 -25.16,60.87l-110.78 -69.71c1.45,4.7 133.02,89.19 150.5,100.96 102.23,68.84 315.5,269.12 394.23,357.31 83.79,93.86 160.64,164.27 238.76,262.77 34.2,43.12 191.66,268.51 214.17,287.17l1310.25 455.69 0 -5047.49 -1604.7 0c315.78,144.89 538.96,272.87 752.09,554.61 206.76,273.32 329.93,590.52 373.44,934.36 46.05,363.98 -33.03,756.99 -201.13,1081.83 -63.09,121.91 -176.12,289.59 -269.6,384.88 -53.36,54.39 -106.57,111.64 -166.82,160.38 -25.98,21.01 -173.87,131.67 -182.78,143.01l1.94 -2.1 1034.91 959.47 -3.87 4.17c-217.07,-179.43 -440.66,-349.07 -657.71,-530.86 -106.46,-89.17 -211.93,-185.72 -317.82,-276.79 -26.69,-22.96 -53.29,-46.03 -79.98,-69 -45.9,-39.49 -37.92,-49.86 -84.99,-22.02 -24.86,14.7 -173.99,107.05 -186.93,109.6l-444.66 -377.82z"/> <path class="fil2" d="M-0 3242.52c1.17,-0.06 215.88,-91.88 234.24,-100.24 74.8,-34.05 93.19,-117.63 173.95,-162.66 98.73,-55.04 181.51,-0 278.86,9.09 121.28,11.32 171.9,1.96 285.1,50.96l44.27 -41.94c-26.22,-39.25 -106.74,-113.99 -143.54,-153.95 -152.21,-165.27 -258.09,-348.59 -336.37,-557.38 -122.34,-326.3 -155.15,-688.36 -71.78,-1030.23 70.48,-288.97 208.78,-560.99 413.19,-778.64 98.45,-104.83 202.69,-195.78 320.9,-275.08 60.3,-40.45 123.17,-76.77 187.38,-110.63 22.62,-11.93 206.01,-90.55 207.02,-91.81l-1593.21 0 0 3242.52z"/> <path class="fil0" d="M1698.83 3313.84l160.07 104.22c-1.23,-12.89 -2.22,-10.64 1.4,-15.16l51.23 12.47 2.86 -4.61 17.59 11.07c-44.7,-132.67 -243.35,-113.46 -252.67,-137.34l0.93 -5.28 180.8 31.88 0.38 6.98 -5.02 -9.59 3.58 -3.2 99.17 69.17 3.13 -4.47 -664.48 -467.33 1.88 -2.66 513.39 348.04 92.22 -559.93 0.83 2.25 392.18 288.26 36.81 -152.3 3.27 -1.16 78.1 59.19 118.13 -25.32 2.37 14.65 -30.52 -20.2 -305 -310.08c32.46,6.68 120.25,1.62 161.92,4.23 112.37,7.03 63.4,-35.26 116.15,-52.33l118.31 87.04c26.31,22.2 161.66,82.9 199.89,99.12 34.76,14.74 69.2,32.57 104.21,46.13 67.11,26 54.49,22.45 104.48,-12.23l-348.74 -244.3 0.19 -15.32 203.23 -6.72 1.18 17.42 -17.04 -42.69 129.94 87.89 -268.32 -207.1 28.83 30.66c-15.22,-5.84 -50.65,-52.99 -59.15,-68.59 -16.59,-30.44 0.08,-82.37 -2.46,-116.7 -4.25,-57.42 -78.66,-99.85 -121.7,-135.59 -45.81,-38.05 -95.83,-76.47 -143.01,-113.71 -31.39,-24.78 -116.62,-101.54 -139.59,-116.12 -44.18,21.22 -16.42,74.48 -141.51,71.45 -29.13,-0.7 -144.07,-45.42 -149.15,-66.94l7.79 -8.19c11.06,-0.03 10.78,14.92 22.98,17.48 11.91,2.49 11.53,8.29 28.67,14.38 24.48,8.69 38.9,18.16 66.55,23.91 19.47,4.05 157.22,2.37 129.76,-42.05 -5.41,-0.58 -30.35,30.56 -101.44,27.13 -42.1,-2.03 -67.43,-14.59 -98.23,-36.37 -63.93,-45.22 -45.79,-147.52 -43.09,-211.98 -76.71,11.98 -32.19,-2.82 9.99,-17.38 4.03,5.25 3.12,2.24 2.22,14.6l15 -6.39 -44.97 -27.57 -130.76 -102.49c-6.85,6.85 -7.81,18.82 -10.45,27.98l3.41 -4.89 133.56 97.9 -8.48 11.56c-12.19,7.87 -118.86,-20.28 -140.56,-24.82 -22.47,-4.7 -25.53,14.18 -60.5,-19.36 -39.24,-37.63 -9.81,-51.86 -7.41,-57.45l80.42 34.57 -0.03 -13.18 -4 5.71 -76.02 -37.91 0.16 -10.69 67.93 -15.12 -341.02 -289.96c-69.83,28.33 -42.84,-13 -67.24,79.39 -7.71,29.21 -33.89,92.18 -7.87,110.43 54.63,38.33 112.32,90.11 166.4,131.57 150.45,115.35 307.84,239.12 407.32,323.75l-6.73 8.09c-231.75,-187.02 -386.54,-305.81 -667.35,-522.12l-6 7.84 83.46 60.43c9.62,34.72 -68.11,165.07 18.43,242.27 27.06,24.13 56.64,44.55 86.12,65.52 17.71,12.6 103.24,47 104.06,47.96 12.48,93.4 -92.1,486.35 -117.4,601.04 -39.54,179.25 -108.58,380.08 -168.96,553.39 -26.07,74.84 -9.19,63.24 -81.26,17.78 -15.1,-9.52 -124.58,-63 -127.73,-30.73 -2.21,22.6 166.2,146.85 193.76,166.77 139.13,100.56 271.52,214 409.21,312.08z"/> <path class="fil0" d="M2114.85 1447.47c7.15,-11.27 103.31,-77.11 121.64,-90.26 48.7,-34.97 20.88,-20.65 -28.25,-20.88 -35.04,-0.16 -70.07,1 -105.14,0.85 -106.34,-0.46 -240.05,-33.25 -277.42,-144.59 -39.1,-116.52 66.74,-205.85 165.71,-240.08 55.87,-19.32 368.99,-33.73 386.62,-8.11l-155.47 106.98 -2.07 -3.01c12.78,5.16 210.66,-24.12 318.65,24.09 75.21,33.57 163.09,125.47 136.95,218.74 -25.28,90.19 -124.86,137.01 -209.45,152.58 -67.81,12.48 -278.79,10.18 -351.76,3.69zm-411.72 -668.38l-281.01 332.78 16.46 12.84c7.35,4.84 36.44,7.18 64.4,22.27 69.23,37.38 296.81,250.34 334.19,260.75l27.25 -13.54c18.38,9.64 -5.35,16.05 45.91,15.71 20.82,-0.14 34.33,3.37 34.44,26.53 0.22,51.38 -13.07,42.66 27.07,85.44l75.88 40.37 4.75 -6.65 -4.16 -10.09c59.21,-46.03 142.86,-41.07 193.73,16.95 83.74,95.5 6.82,180.76 9.08,198.55 11.23,9.04 19.01,3.2 27.73,10.65 5.31,4.54 9.59,14.65 17.42,21.23 42.34,35.59 86.11,70.51 130.17,103.97 59.38,45.09 115.62,92.9 175.37,137.23 135.69,100.67 62.06,97.99 86.73,220.57 7.7,38.29 130.84,121.87 166.85,145.52l62.65 -450.69 -357.33 -260.2c-150.21,20.39 -58.74,139.39 -69.79,247.02 -42.74,1.99 -44.19,-158.07 -46.25,-191.81 -4.9,-80.23 79.11,-83.68 141.44,-95.94 95.91,-18.87 299.47,-36.7 341.01,-138.27 51.91,-126.93 26.03,-270.76 -42.44,-384.27 -51.33,-85.1 -156.18,-185.47 -242.64,-234.37 -85.36,-39.39 -135.94,-78.05 -232.65,-105.63 -198.14,-56.51 -394.83,-58.5 -593.19,-3.52 -33.15,9.19 -93.23,30.76 -120.65,48.61 -18.02,11.73 -5.45,-8.13 -24.74,12.16 -3.31,3.48 -67.73,51.53 -74.57,45.39l-3.1 -3.22 110 -106.33z"/> <path class="fil3" d="M2298.31 2978.59l-112.63 461.43 -3.05 -0.66 12.69 -65.52 -36.62 17.37 -6.97 -1.27 -40.28 68.75 4.64 7.11 -15.96 5.03 -32.47 -111.88 7.16 -2.62 -13.22 62.21 -248.51 -170.52 -513.39 -348.04 -1.88 2.66 664.48 467.33 -3.13 4.47 -99.17 -69.17 -3.58 3.2 5.02 9.59 -0.38 -6.98 -180.8 -31.88 -0.93 5.28c9.32,23.88 207.97,4.67 252.67,137.34l-17.59 -11.07 -2.86 4.61 -51.23 -12.47c-3.62,4.52 -2.63,2.28 -1.4,15.16l-160.07 -104.22 -12.87 0.73 -274.42 16.98 -27.68 72.89c75.18,50.74 195.66,99.1 281.03,150.46 89.65,53.93 172.01,113.72 260.12,172.2 182.13,120.89 328.56,239.7 495.27,369.37 159.29,123.9 322.31,250.57 474.19,390.5 44.31,40.82 440.21,415.84 446.22,416.73l-223.92 -311.91c-22.51,-18.65 -179.97,-244.05 -214.17,-287.17 -78.12,-98.5 -154.98,-168.91 -238.76,-262.77 -78.73,-88.19 -292,-288.47 -394.23,-357.31 -17.48,-11.77 -149.05,-96.26 -150.5,-100.96l110.78 69.71c-0.6,-2.76 21.96,-55.96 25.16,-60.87l6.44 -6.91 1382.29 1152.18 -7.65 9.18c-28.07,-73.85 -736.51,-638.49 -853.98,-738.12 -142.69,-121.03 -285.86,-249.15 -432.53,-364.44 -38.11,-29.96 -89.58,-53.26 -78.28,-105.12 11.43,-52.45 26.52,-110.12 38.91,-163.45 7.54,-32.46 70.36,-319.82 78.18,-322.04l28.09 -169.39 -78.1 -59.19 -3.27 1.16 -36.81 152.3z"/> <path class="fil4" d="M2642.03 891.63c86.46,48.9 191.32,149.27 242.64,234.37 68.47,113.52 94.35,257.35 42.44,384.27 -41.54,101.57 -245.1,119.4 -341.01,138.27 -62.33,12.26 -146.33,15.71 -141.44,95.94 2.06,33.74 3.5,193.8 46.25,191.81 11.06,-107.62 -80.42,-226.63 69.79,-247.02l133.36 -24.12 181.94 -39.16c15.26,-3.3 71.22,-49.2 83.42,-61.98 33.39,-34.95 23.92,-72.57 36.04,-110.01l10.18 -14.63 385.16 268 -7.74 15.7 -173.84 151.22 97.19 194.18 -3.53 1.72c-4.14,6.5 -84.13,50.04 -94.83,56.15 -58.06,33.16 -65.56,11.49 -67.34,81.84l-133.15 -29.3 2.41 -262.84 -91.95 33.43 -62.65 450.69 119.81 111.43 -129.94 -87.89 17.04 42.69 -1.18 -17.42 -203.23 6.72 -0.19 15.32 348.74 244.3c101.31,-55.36 -16.59,-90.83 8.47,-147.43 6.97,-15.74 110.52,-60.04 95.1,-136.3l-71.88 -42.5 2.37 -4c3.94,-12.95 59.54,-30.13 68.28,-46.51 19.13,-35.87 36.12,-27.25 59.38,-55 57.69,-68.83 -80.95,-78.02 33.15,-138.48 193.21,-102.39 125.77,-80.12 53.49,-254.84 44.59,-46.68 91.53,-89.63 135.83,-138.48 48.47,-53.44 28.52,-28.53 24.45,-94.7 -2.74,-44.48 -1.95,-88.33 -3.67,-132.56 -5.16,-133.07 -58.19,-305.95 -124.76,-421.47 -138.77,-240.83 -337.86,-407.12 -604.89,-488.35 33.57,77 163.06,344.38 -39.72,276.93z"/> <path class="fil5" d="M2114.85 1447.47c72.97,6.49 283.95,8.78 351.76,-3.69 84.59,-15.57 184.17,-62.38 209.45,-152.58 26.14,-93.27 -61.74,-185.17 -136.95,-218.74 -107.99,-48.21 -305.87,-18.93 -318.65,-24.09l2.07 3.01 155.47 -106.98c-17.63,-25.62 -330.76,-11.22 -386.62,8.11 -98.96,34.23 -204.81,123.57 -165.71,240.08 37.37,111.34 171.08,144.13 277.42,144.59 35.07,0.15 70.11,-1.01 105.14,-0.85 49.13,0.23 76.95,-14.09 28.25,20.88 -18.32,13.15 -114.49,78.99 -121.64,90.26z"/> <polygon class="fil6" points="1813.09,3248.02 2061.6,3418.54 2074.81,3356.33 2067.66,3358.95 2100.13,3470.83 2116.09,3465.8 2111.45,3458.7 2151.72,3389.95 2158.7,3391.22 2195.32,3373.85 2182.63,3439.37 2185.68,3440.03 2298.31,2978.59 1906.14,2690.34 1905.31,2688.09 "/> <path class="fil7" d="M1703.13 779.09l-110 106.33 3.1 3.22c6.84,6.15 71.26,-41.9 74.57,-45.39 19.28,-20.28 6.72,-0.43 24.74,-12.16 27.42,-17.85 87.49,-39.42 120.65,-48.61 198.36,-54.98 395.05,-52.99 593.19,3.52 96.7,27.58 147.29,66.24 232.65,105.63 239.49,88.56 40.56,-270.28 39.72,-276.93 -21.35,-19.53 -219.09,-51.86 -259.13,-54.98 -101.13,-7.88 -187.8,-0.79 -287.03,20.88 -83.17,18.17 -159.69,45.17 -237.14,78.16 -31.44,13.39 -186.33,98.85 -195.32,120.31z"/> <path class="fil7" d="M2876 1625.99l-181.94 39.16 -133.36 24.12 357.33 260.2 91.95 -33.43 -2.41 262.84 133.15 29.3c1.77,-70.35 9.27,-48.68 67.34,-81.84 10.7,-6.11 90.69,-49.65 94.83,-56.15l3.53 -1.72 -97.19 -194.18 -91.81 2.58 -5.31 -13.37 177.08 -143.85c-4.79,-0.47 -210.83,-120.66 -233.54,-133.75 -2.54,6.34 -20.13,29.37 -25.29,36.6l1.71 -3.93 216.42 100.94c-1.36,5 -9.2,25.33 -13.35,25.5l-217.07 -73.86 -15.62 20.65 93.1 76.27c-1.6,5.26 -8.47,17.16 -12.98,20.31 -19.28,-14.79 -192.62,-148.89 -196.86,-150.44l-21.25 14.86 11.54 -26.83z"/> <polygon class="fil8" points="1016.43,2997.72 972.16,3039.66 1411.54,3331.56 1685.96,3314.58 1131.6,2890.55 1124.76,2878.34 "/> <path class="fil9" d="M1971.84 1521.87l2.51 14.65 44.97 27.57 -15 6.39c0.9,-12.36 1.81,-9.35 -2.22,-14.6l-51.4 17.74 1.6 5.85 39.8 -6.21c-2.7,64.46 -20.84,166.76 43.09,211.98 30.8,21.78 56.13,34.34 98.23,36.37 71.09,3.43 96.03,-27.71 101.44,-27.13 27.47,44.42 -110.28,46.1 -129.76,42.05 -27.65,-5.75 -42.06,-15.22 -66.55,-23.91 -10.05,-3.57 -51.45,-31.86 -51.65,-31.86l-7.79 8.19c5.08,21.51 120.02,66.23 149.15,66.94 125.09,3.03 97.32,-50.24 141.51,-71.45 22.98,14.58 108.2,91.35 139.59,116.12 47.18,37.24 97.2,75.66 143.01,113.71 43.04,35.74 117.45,78.17 121.7,135.59 2.54,34.33 -14.13,86.25 2.46,116.7 8.5,15.6 43.93,62.75 59.15,68.59l-28.83 -30.66 268.32 207.1 -119.81 -111.43c-36.01,-23.65 -159.15,-107.23 -166.85,-145.52 -24.67,-122.58 48.97,-119.9 -86.73,-220.57 -59.75,-44.33 -115.99,-92.14 -175.37,-137.23 -44.06,-33.45 -87.82,-68.38 -130.17,-103.97 -7.83,-6.58 -12.11,-16.69 -17.42,-21.23 -8.72,-7.44 -16.5,-1.61 -27.73,-10.65 -2.27,-17.79 74.66,-103.05 -9.08,-198.55 -50.87,-58.02 -134.52,-62.99 -193.73,-16.95l4.16 10.09 -4.75 6.65 -75.88 -40.37z"/> <path class="fil2" d="M2876 1625.99l-11.54 26.83 21.25 -14.86c4.24,1.55 177.57,135.64 196.86,150.44 4.51,-3.15 11.38,-15.05 12.98,-20.31l-93.1 -76.27 15.62 -20.65 217.07 73.86c4.15,-0.17 11.98,-20.5 13.35,-25.5l-216.42 -100.94 -1.71 3.93c5.16,-7.23 22.75,-30.26 25.29,-36.6 22.71,13.09 228.75,133.28 233.54,133.75l-177.08 143.85 5.31 13.37 91.81 -2.58 173.84 -151.22 7.74 -15.7 -385.16 -268 -10.18 14.63c-12.12,37.44 -2.65,75.06 -36.04,110.01 -12.21,12.78 -68.16,58.68 -83.42,61.98z"/> <path class="fil6" d="M2506.47 2853.44l43.32 -98.65 -4.26 -1.36 -33.08 -69.02 85.39 -102.1 -118.31 -87.04c-52.75,17.07 -3.79,59.35 -116.15,52.33 -41.66,-2.61 -129.45,2.45 -161.92,-4.23l305 310.08z"/> <path class="fil10" d="M1837.17 1407.73l-15.54 20.61 -67.93 15.12 -0.16 10.69 76.02 37.91 4 -5.71 0.03 13.18 -80.42 -34.57c-2.4,5.59 -31.83,19.82 7.41,57.45 34.97,33.54 38.03,14.66 60.5,19.36 21.69,4.54 128.37,32.69 140.56,24.82l8.48 -11.56 -133.56 -97.9 -3.41 4.89c2.63,-9.16 3.59,-21.13 10.45,-27.98l130.76 102.49 -2.51 -14.65c-40.14,-42.77 -26.84,-34.05 -27.07,-85.44 -0.1,-23.17 -13.62,-26.67 -34.44,-26.53 -51.26,0.34 -27.53,-6.07 -45.91,-15.71l-27.25 13.54z"/> </g> </svg>